<?xml version="1.0" standalone="no"?>
<!DOCTYPE svg PUBLIC "-//W3C//DTD SVG 20010904//EN"
 "http://www.w3.org/TR/2001/REC-SVG-20010904/DTD/svg10.dtd">
<svg version="1.0" xmlns="http://www.w3.org/2000/svg"
 width="117.000000pt" height="117.000000pt" viewBox="0 0 117.000000 117.000000"
 preserveAspectRatio="xMidYMid meet">
<metadata>
Created by potrace 1.11, written by Peter Selinger 2001-2013
</metadata>
<g transform="translate(0.000000,117.000000) scale(0.100000,-0.100000)"
fill="#000000" stroke="none">
<path d="M289 1166 c-3 -3 -89 -12 -146 -16 -2 0 -3 -259 -3 -575 l0 -575 130
0 130 0 0 205 0 205 88 1 c106 0 141 5 212 25 189 54 282 183 277 383 -2 69
-8 97 -29 142 -44 94 -142 165 -265 195 -28 7 -388 16 -394 10z m313 -208 c77
-23 124 -98 114 -181 -14 -107 -87 -160 -226 -161 l-85 -1 -3 169 c-2 129 1
171 10 178 19 12 145 10 190 -4z"/>
</g>
</svg>
